<svg width="20.000000" height="16.000000" viewBox="0 0 20 16" fill="none" xmlns="http://www.w3.org/2000/svg" xmlns:xlink="http://www.w3.org/1999/xlink">
	<desc>
			Created with Pixso.
	</desc>
	<defs>
		<clipPath id="clip6_156">
			<rect id="SVG" rx="-0.500000" width="19.000000" height="15.000000" transform="translate(0.500000 0.500000)" fill="white" fill-opacity="0"/>
		</clipPath>
	</defs>
	<g clip-path="url(#clip6_156)">
		<path id="Vector" d="M17.92 5.76L16.34 1.02C16.13 0.41 15.56 0 14.91 0L5.08 0C4.43 0 3.86 0.41 3.65 1.02L2.07 5.76C2.02 5.92 2 6.08 2 6.24L2 14.5C2 15.32 2.67 16 3.5 16L16.5 16C17.32 16 18 15.32 18 14.5L18 6.24C18 6.08 17.97 5.92 17.92 5.76ZM3 6.24C3 6.19 3 6.13 3.02 6.08L4.6 1.34C4.67 1.13 4.86 1 5.08 1L9.5 1L9.5 6.25L3 6.25L3 6.24ZM17 14.5C17 14.77 16.77 15 16.5 15L3.5 15C3.22 15 3 14.77 3 14.5L3 7.25L17 7.25L17 14.5ZM17 6.25L10.5 6.25L10.5 1L14.91 1C15.13 1 15.32 1.13 15.39 1.34L16.97 6.08C16.99 6.13 17 6.18 17 6.24L17 6.25Z" fill="#000000" fill-opacity="1.000000" fill-rule="nonzero"/>
		<path id="Vector" d="M16.34 1.02C16.13 0.41 15.56 0 14.91 0L5.08 0C4.43 0 3.86 0.41 3.65 1.02L2.07 5.76C2.02 5.92 2 6.08 2 6.24L2 14.5C2 15.32 2.67 16 3.5 16L16.5 16C17.32 16 18 15.32 18 14.5L18 6.24C18 6.08 17.97 5.92 17.92 5.76L16.34 1.02ZM3.02 6.08L4.6 1.34C4.67 1.13 4.86 1 5.08 1L9.5 1L9.5 6.25L3 6.25L3 6.24C3 6.19 3 6.13 3.02 6.08ZM16.5 15L3.5 15C3.22 15 3 14.77 3 14.5L3 7.25L17 7.25L17 14.5C17 14.77 16.77 15 16.5 15ZM10.5 6.25L10.5 1L14.91 1C15.13 1 15.32 1.13 15.39 1.34L16.97 6.08C16.99 6.13 17 6.18 17 6.24L17 6.25L10.5 6.25Z" stroke="#000000" stroke-opacity="1.000000" stroke-width="0.031250"/>
	</g>
</svg>
