<svg width="13.750000" height="17.500000" viewBox="0 0 13.75 17.5" fill="none" xmlns="http://www.w3.org/2000/svg" xmlns:xlink="http://www.w3.org/1999/xlink">
	<desc>
			Created with Pixso.
	</desc>
	<defs/>
	<path id="Vector" d="M5.78 13.75L4.06 13.75L4.06 0.62C4.06 0.45 3.99 0.3 3.87 0.18C3.76 0.06 3.6 0 3.43 0L2.81 0C2.64 0 2.48 0.06 2.37 0.18C2.25 0.3 2.18 0.45 2.18 0.62L2.18 13.75L0.46 13.75C0.37 13.75 0.28 13.77 0.21 13.82C0.13 13.87 0.07 13.94 0.03 14.03C0 14.11 -0.01 14.21 0 14.3C0.02 14.39 0.06 14.47 0.12 14.54L2.78 17.35C2.82 17.39 2.88 17.43 2.93 17.46C2.99 17.48 3.06 17.49 3.12 17.49C3.18 17.49 3.25 17.48 3.31 17.46C3.36 17.43 3.42 17.39 3.46 17.35L6.12 14.54C6.18 14.47 6.22 14.39 6.24 14.3C6.25 14.21 6.24 14.11 6.21 14.03C6.17 13.94 6.11 13.87 6.03 13.82C5.96 13.77 5.87 13.75 5.78 13.75ZM13.62 2.95L10.96 0.14C10.92 0.1 10.86 0.06 10.81 0.03C10.75 0.01 10.68 0 10.62 0C10.56 0 10.49 0.01 10.43 0.03C10.38 0.06 10.32 0.1 10.28 0.14L7.62 2.95C7.56 3.02 7.52 3.1 7.5 3.19C7.49 3.28 7.5 3.38 7.53 3.46C7.57 3.55 7.63 3.62 7.71 3.67C7.78 3.72 7.87 3.75 7.96 3.75L9.68 3.75L9.68 16.87C9.68 17.04 9.75 17.19 9.87 17.31C9.98 17.43 10.14 17.5 10.31 17.5L10.93 17.5C11.1 17.5 11.26 17.43 11.37 17.31C11.49 17.19 11.56 17.04 11.56 16.87L11.56 3.75L13.28 3.75C13.37 3.75 13.46 3.72 13.53 3.67C13.61 3.62 13.67 3.55 13.71 3.46C13.74 3.38 13.75 3.28 13.74 3.19C13.72 3.1 13.68 3.02 13.62 2.95Z" fill="#000000" fill-opacity="1.000000" fill-rule="nonzero"/>
</svg>
