<svg width="20.031250" height="15.031250" viewBox="0 0 20.0312 15.0312" fill="none" xmlns="http://www.w3.org/2000/svg" xmlns:xlink="http://www.w3.org/1999/xlink">
	<desc>
			Created with Pixso.
	</desc>
	<defs/>
	<path id="Vector" d="M8.76 5.01C8.9 5.01 9.01 4.9 9.01 4.76L9.01 4.26C9.01 4.12 8.9 4.01 8.76 4.01L1.26 4.01C1.12 4.01 1.01 4.12 1.01 4.26L1.01 4.76C1.01 4.9 1.12 5.01 1.26 5.01L8.76 5.01ZM19.76 11.01L19.01 11.01L19.01 7.63C19.01 7.11 18.8 6.59 18.42 6.22L15.8 3.6C15.43 3.22 14.92 3.01 14.39 3.01L13.01 3.01L13.01 1.47C13.01 0.66 12.32 0.01 11.47 0.01L3.55 0.01C2.7 0.01 2.01 0.66 2.01 1.47L2.01 2.01L0.26 2.01C0.12 2.01 0.01 2.12 0.01 2.26L0.01 2.76C0.01 2.9 0.12 3.01 0.26 3.01L7.76 3.01C7.9 3.01 8.01 2.9 8.01 2.76L8.01 2.26C8.01 2.12 7.9 2.01 7.76 2.01L3.01 2.01L3.01 1.47C3.01 1.21 3.25 1.01 3.55 1.01L11.47 1.01C11.77 1.01 12.01 1.21 12.01 1.47L12.01 11.01L6.5 11.01C6.04 10.41 5.32 10.01 4.51 10.01C3.95 10.01 3.43 10.2 3.01 10.52L3.01 8.01L2.01 8.01L2.01 12.51C2.01 13.89 3.13 15.01 4.51 15.01C5.89 15.01 7.01 13.89 7.01 12.51C7.01 12.34 6.99 12.17 6.96 12.01L13.06 12.01C13.03 12.17 13.01 12.34 13.01 12.51C13.01 13.89 14.13 15.01 15.51 15.01C16.89 15.01 18.01 13.89 18.01 12.51C18.01 12.34 17.99 12.17 17.96 12.01L19.76 12.01C19.9 12.01 20.01 11.9 20.01 11.76L20.01 11.26C20.01 11.12 19.9 11.01 19.76 11.01ZM4.51 14.01C3.68 14.01 3.01 13.34 3.01 12.51C3.01 11.68 3.68 11.01 4.51 11.01C5.34 11.01 6.01 11.68 6.01 12.51C6.01 13.34 5.34 14.01 4.51 14.01ZM13.01 4.01L14.39 4.01C14.65 4.01 14.91 4.12 15.1 4.3L17.72 6.93C17.74 6.95 17.75 6.99 17.77 7.01L13.01 7.01L13.01 4.01ZM15.51 14.01C14.68 14.01 14.01 13.34 14.01 12.51C14.01 11.68 14.68 11.01 15.51 11.01C16.34 11.01 17.01 11.68 17.01 12.51C17.01 13.34 16.34 14.01 15.51 14.01ZM18.01 11.01L17.5 11.01C17.04 10.41 16.32 10.01 15.51 10.01C14.7 10.01 13.98 10.41 13.52 11.01L13.01 11.01L13.01 8.01L18.01 8.01L18.01 11.01ZM8.01 6.76L8.01 6.26C8.01 6.12 7.9 6.01 7.76 6.01L0.26 6.01C0.12 6.01 0.01 6.12 0.01 6.26L0.01 6.76C0.01 6.9 0.12 7.01 0.26 7.01L7.76 7.01C7.9 7.01 8.01 6.9 8.01 6.76Z" fill="#000000" fill-opacity="1.000000" fill-rule="nonzero"/>
	<path id="Vector" d="M9.01 4.76L9.01 4.26C9.01 4.12 8.9 4.01 8.76 4.01L1.26 4.01C1.12 4.01 1.01 4.12 1.01 4.26L1.01 4.76C1.01 4.9 1.12 5.01 1.26 5.01L8.76 5.01C8.9 5.01 9.01 4.9 9.01 4.76ZM19.01 11.01L19.01 7.63C19.01 7.11 18.8 6.59 18.42 6.22L15.8 3.6C15.43 3.22 14.92 3.01 14.39 3.01L13.01 3.01L13.01 1.47C13.01 0.66 12.32 0.01 11.47 0.01L3.55 0.01C2.7 0.01 2.01 0.66 2.01 1.47L2.01 2.01L0.26 2.01C0.12 2.01 0.01 2.12 0.01 2.26L0.01 2.76C0.01 2.9 0.12 3.01 0.26 3.01L7.76 3.01C7.9 3.01 8.01 2.9 8.01 2.76L8.01 2.26C8.01 2.12 7.9 2.01 7.76 2.01L3.01 2.01L3.01 1.47C3.01 1.21 3.25 1.01 3.55 1.01L11.47 1.01C11.77 1.01 12.01 1.21 12.01 1.47L12.01 11.01L6.5 11.01C6.04 10.41 5.32 10.01 4.51 10.01C3.95 10.01 3.43 10.2 3.01 10.52L3.01 8.01L2.01 8.01L2.01 12.51C2.01 13.89 3.13 15.01 4.51 15.01C5.89 15.01 7.01 13.89 7.01 12.51C7.01 12.34 6.99 12.17 6.96 12.01L13.06 12.01C13.03 12.17 13.01 12.34 13.01 12.51C13.01 13.89 14.13 15.01 15.51 15.01C16.89 15.01 18.01 13.89 18.01 12.51C18.01 12.34 17.99 12.17 17.96 12.01L19.76 12.01C19.9 12.01 20.01 11.9 20.01 11.76L20.01 11.26C20.01 11.12 19.9 11.01 19.76 11.01L19.01 11.01ZM3.01 12.51C3.01 11.68 3.68 11.01 4.51 11.01C5.34 11.01 6.01 11.68 6.01 12.51C6.01 13.34 5.34 14.01 4.51 14.01C3.68 14.01 3.01 13.34 3.01 12.51ZM14.39 4.01C14.65 4.01 14.91 4.12 15.1 4.3L17.72 6.93C17.74 6.95 17.75 6.99 17.77 7.01L13.01 7.01L13.01 4.01L14.39 4.01ZM14.01 12.51C14.01 11.68 14.68 11.01 15.51 11.01C16.34 11.01 17.01 11.68 17.01 12.51C17.01 13.34 16.34 14.01 15.51 14.01C14.68 14.01 14.01 13.34 14.01 12.51ZM17.5 11.01C17.04 10.41 16.32 10.01 15.51 10.01C14.7 10.01 13.98 10.41 13.52 11.01L13.01 11.01L13.01 8.01L18.01 8.01L18.01 11.01L17.5 11.01ZM8.01 6.26C8.01 6.12 7.9 6.01 7.76 6.01L0.26 6.01C0.12 6.01 0.01 6.12 0.01 6.26L0.01 6.76C0.01 6.9 0.12 7.01 0.26 7.01L7.76 7.01C7.9 7.01 8.01 6.9 8.01 6.76L8.01 6.26Z" stroke="#000000" stroke-opacity="1.000000" stroke-width="0.031250"/>
</svg>
