<svg width="20.035156" height="12.812500" viewBox="0 0 20.0352 12.8125" fill="none" xmlns="http://www.w3.org/2000/svg" xmlns:xlink="http://www.w3.org/1999/xlink">
	<desc>
			Created with Pixso.
	</desc>
	<defs/>
	<path id="Vector" d="M19.78 5.56C17.82 2.23 14.17 0.01 10.01 0.01C5.85 0.01 2.2 2.23 0.24 5.56C0.09 5.81 0.01 6.1 0.01 6.4C0.01 6.7 0.09 6.99 0.24 7.25C2.2 10.57 5.85 12.79 10.01 12.79C14.17 12.79 17.83 10.57 19.78 7.25C19.93 6.99 20.01 6.7 20.01 6.4C20.01 6.1 19.93 5.81 19.78 5.56ZM10.01 11.12C6.45 11.12 3.34 9.22 1.68 6.4C3.21 3.8 5.97 1.98 9.18 1.71C9.52 2.06 9.73 2.54 9.73 3.07C9.73 4.14 8.86 5.01 7.79 5.01C6.72 5.01 5.85 4.14 5.85 3.07L5.85 3.07C5.49 3.73 5.29 4.49 5.29 5.29C5.29 7.9 7.4 10.01 10.01 10.01C12.62 10.01 14.73 7.9 14.73 5.29C14.73 4.21 14.37 3.22 13.77 2.42C15.7 3.23 17.3 4.63 18.35 6.4C16.68 9.22 13.57 11.12 10.01 11.12Z" fill="#000000" fill-opacity="1.000000" fill-rule="nonzero"/>
	<path id="Vector" d="M10.01 0.01C5.85 0.01 2.2 2.23 0.24 5.56C0.09 5.81 0.01 6.1 0.01 6.4C0.01 6.7 0.09 6.99 0.24 7.25C2.2 10.57 5.85 12.79 10.01 12.79C14.17 12.79 17.83 10.57 19.78 7.25C19.93 6.99 20.01 6.7 20.01 6.4C20.01 6.1 19.93 5.81 19.78 5.56C17.82 2.23 14.17 0.01 10.01 0.01ZM1.68 6.4C3.21 3.8 5.97 1.98 9.18 1.71C9.52 2.06 9.73 2.54 9.73 3.07C9.73 4.14 8.86 5.01 7.79 5.01C6.72 5.01 5.85 4.14 5.85 3.07L5.85 3.07C5.49 3.73 5.29 4.49 5.29 5.29C5.29 7.9 7.4 10.01 10.01 10.01C12.62 10.01 14.73 7.9 14.73 5.29C14.73 4.21 14.37 3.22 13.77 2.42C15.7 3.23 17.3 4.63 18.35 6.4C16.68 9.22 13.57 11.12 10.01 11.12C6.45 11.12 3.34 9.22 1.68 6.4Z" stroke="#000000" stroke-opacity="1.000000" stroke-width="0.034722"/>
</svg>
