<svg width="18.576660" height="17.780029" viewBox="0 0 18.5767 17.78" fill="none" xmlns="http://www.w3.org/2000/svg" xmlns:xlink="http://www.w3.org/1999/xlink">
	<desc>
			Created with Pixso.
	</desc>
	<defs/>
	<path id="Vector" d="M17.62 5.95L12.55 5.21L10.28 0.61C9.87 -0.21 8.7 -0.22 8.29 0.61L6.02 5.21L0.95 5.95C0.04 6.08 -0.33 7.2 0.33 7.85L4 11.42L3.13 16.47C2.98 17.39 3.94 18.07 4.75 17.64L9.28 15.26L13.82 17.64C14.63 18.07 15.59 17.39 15.43 16.47L14.56 11.42L18.23 7.85C18.89 7.2 18.53 6.08 17.62 5.95ZM12.78 10.84L13.6 15.64L9.28 13.38L4.97 15.64L5.79 10.84L2.3 7.44L7.12 6.73L9.28 2.36L11.44 6.73L16.27 7.44L12.78 10.84Z" fill="#000000" fill-opacity="1.000000" fill-rule="nonzero"/>
</svg>
