<svg width="20.000000" height="20.000000" viewBox="0 0 20 20" fill="none" xmlns="http://www.w3.org/2000/svg" xmlns:xlink="http://www.w3.org/1999/xlink">
	<desc>
			Created with Pixso.
	</desc>
	<defs>
		<clipPath id="clip6_139">
			<rect id="SVG" rx="-0.500000" width="19.000000" height="19.000000" transform="translate(0.500000 0.500000)" fill="white" fill-opacity="0"/>
		</clipPath>
	</defs>
	<g clip-path="url(#clip6_139)">
		<path id="Vector" d="M10 13.28C9.39 13.28 8.9 13.77 8.9 14.37C8.9 14.97 9.39 15.46 10 15.46C10.6 15.46 11.09 14.97 11.09 14.37C11.09 13.77 10.6 13.28 10 13.28ZM10.29 12.34L9.67 12.34C9.41 12.34 9.2 12.13 9.2 11.87L9.2 11.86C9.2 9.11 12.23 9.37 12.23 7.66C12.23 6.88 11.53 6.09 9.98 6.09C8.84 6.09 8.25 6.47 7.67 7.21C7.52 7.4 7.24 7.44 7.03 7.3L6.52 6.94C6.3 6.79 6.25 6.49 6.42 6.27C7.25 5.21 8.23 4.53 9.98 4.53C12.03 4.53 13.79 5.69 13.79 7.66C13.79 10.29 10.76 10.15 10.76 11.86L10.76 11.87C10.76 12.13 10.55 12.34 10.29 12.34ZM10 1.56C14.63 1.56 18.43 5.31 18.43 10C18.43 14.65 14.66 18.43 10 18.43C5.34 18.43 1.56 14.66 1.56 10C1.56 5.34 5.33 1.56 10 1.56ZM10 0.31C4.64 0.31 0.31 4.65 0.31 10C0.31 15.35 4.64 19.68 10 19.68C15.35 19.68 19.68 15.35 19.68 10C19.68 4.65 15.35 0.31 10 0.31Z" fill="#000000" fill-opacity="1.000000" fill-rule="nonzero"/>
		<path id="Vector" d="M8.9 14.37C8.9 14.97 9.39 15.46 10 15.46C10.6 15.46 11.09 14.97 11.09 14.37C11.09 13.77 10.6 13.28 10 13.28C9.39 13.28 8.9 13.77 8.9 14.37ZM9.67 12.34C9.41 12.34 9.2 12.13 9.2 11.87L9.2 11.86C9.2 9.11 12.23 9.37 12.23 7.66C12.23 6.88 11.53 6.09 9.98 6.09C8.84 6.09 8.25 6.47 7.67 7.21C7.52 7.4 7.24 7.44 7.03 7.3L6.52 6.94C6.3 6.79 6.25 6.49 6.42 6.27C7.25 5.21 8.23 4.53 9.98 4.53C12.03 4.53 13.79 5.69 13.79 7.66C13.79 10.29 10.76 10.15 10.76 11.86L10.76 11.87C10.76 12.13 10.55 12.34 10.29 12.34L9.67 12.34ZM18.43 10C18.43 14.65 14.66 18.43 10 18.43C5.34 18.43 1.56 14.66 1.56 10C1.56 5.34 5.33 1.56 10 1.56C14.63 1.56 18.43 5.31 18.43 10ZM0.31 10C0.31 15.35 4.64 19.68 10 19.68C15.35 19.68 19.68 15.35 19.68 10C19.68 4.65 15.35 0.31 10 0.31C4.64 0.31 0.31 4.65 0.31 10Z" stroke="#000000" stroke-opacity="1.000000" stroke-width="0.039062"/>
	</g>
</svg>
