<svg width="17.500000" height="20.000000" viewBox="0 0 17.5 20" fill="none" xmlns="http://www.w3.org/2000/svg" xmlns:xlink="http://www.w3.org/1999/xlink">
	<desc>
			Created with Pixso.
	</desc>
	<defs/>
	<path id="Vector" d="M13.75 12.5C14.79 12.5 15.67 12.86 16.4 13.59C17.13 14.32 17.5 15.2 17.5 16.25C17.5 17.29 17.13 18.17 16.4 18.9C15.67 19.63 14.79 20 13.75 20C12.7 20 11.82 19.63 11.09 18.9C10.36 18.17 10 17.29 10 16.25C10 15.85 10.05 15.48 10.15 15.11L6.32 12.73C5.59 13.41 4.73 13.75 3.75 13.75C2.7 13.75 1.82 13.38 1.09 12.65C0.36 11.92 0 11.04 0 10C0 8.95 0.36 8.07 1.09 7.34C1.82 6.61 2.7 6.25 3.75 6.25C4.73 6.25 5.59 6.58 6.32 7.26L10.15 4.88C10.05 4.51 10 4.14 10 3.75C10 2.7 10.36 1.82 11.09 1.09C11.82 0.36 12.7 0 13.75 0C14.79 0 15.67 0.36 16.4 1.09C17.13 1.82 17.5 2.7 17.5 3.75C17.5 4.79 17.13 5.67 16.4 6.4C15.67 7.13 14.79 7.5 13.75 7.5C12.76 7.5 11.9 7.16 11.17 6.48L7.34 8.86C7.57 9.62 7.57 10.37 7.34 11.13L11.17 13.51C11.9 12.83 12.76 12.5 13.75 12.5ZM15.07 2.42C14.71 2.05 14.27 1.87 13.75 1.87C13.22 1.87 12.78 2.05 12.42 2.42C12.05 2.78 11.87 3.22 11.87 3.75C11.87 4.27 12.05 4.71 12.42 5.07C12.78 5.44 13.22 5.62 13.75 5.62C14.27 5.62 14.71 5.44 15.07 5.07C15.44 4.71 15.62 4.27 15.62 3.75C15.62 3.22 15.44 2.78 15.07 2.42ZM2.42 11.32C2.78 11.69 3.22 11.87 3.75 11.87C4.27 11.87 4.71 11.69 5.07 11.32C5.44 10.96 5.62 10.52 5.62 10C5.62 9.47 5.44 9.03 5.07 8.67C4.71 8.3 4.27 8.12 3.75 8.12C3.22 8.12 2.78 8.3 2.42 8.67C2.05 9.03 1.87 9.47 1.87 10C1.87 10.52 2.05 10.96 2.42 11.32ZM12.42 17.57C12.78 17.94 13.22 18.12 13.75 18.12C14.27 18.12 14.71 17.94 15.07 17.57C15.44 17.21 15.62 16.77 15.62 16.25C15.62 15.72 15.44 15.28 15.07 14.92C14.71 14.55 14.27 14.37 13.75 14.37C13.22 14.37 12.78 14.55 12.42 14.92C12.05 15.28 11.87 15.72 11.87 16.25C11.87 16.77 12.05 17.21 12.42 17.57Z" fill="#000000" fill-opacity="1.000000" fill-rule="nonzero"/>
</svg>
