<svg width="20.000000" height="20.000000" viewBox="0 0 20 20" fill="none" xmlns="http://www.w3.org/2000/svg" xmlns:xlink="http://www.w3.org/1999/xlink">
	<desc>
			Created with Pixso.
	</desc>
	<defs>
		<clipPath id="clip6_201">
			<rect id="SVG" rx="-0.500000" width="19.000000" height="19.000000" transform="translate(0.500000 0.500000)" fill="white" fill-opacity="0"/>
		</clipPath>
	</defs>
	<g clip-path="url(#clip6_201)">
		<path id="Vector" d="M15 5C15 2.24 12.75 0 10 0C7.24 0 5 2.24 5 5L1.25 5L1.25 16.87C1.25 18.6 2.64 20 4.37 20L15.62 20C17.35 20 18.75 18.6 18.75 16.87L18.75 5L15 5ZM10 1.87C11.72 1.87 13.12 3.27 13.12 5L6.87 5C6.87 3.27 8.27 1.87 10 1.87ZM16.87 16.87C16.87 17.56 16.31 18.12 15.62 18.12L4.37 18.12C3.68 18.12 3.12 17.56 3.12 16.87L3.12 6.87L5 6.87L5 8.43C5 8.95 5.41 9.37 5.93 9.37C6.45 9.37 6.87 8.95 6.87 8.43L6.87 6.87L13.12 6.87L13.12 8.43C13.12 8.95 13.54 9.37 14.06 9.37C14.58 9.37 15 8.95 15 8.43L15 6.87L16.87 6.87L16.87 16.87Z" fill="#484848" fill-opacity="1.000000" fill-rule="nonzero"/>
		<path id="Vector" d="M10 0C7.24 0 5 2.24 5 5L1.25 5L1.25 16.87C1.25 18.6 2.64 20 4.37 20L15.62 20C17.35 20 18.75 18.6 18.75 16.87L18.75 5L15 5C15 2.24 12.75 0 10 0ZM13.12 5L6.87 5C6.87 3.27 8.27 1.87 10 1.87C11.72 1.87 13.12 3.27 13.12 5ZM15.62 18.12L4.37 18.12C3.68 18.12 3.12 17.56 3.12 16.87L3.12 6.87L5 6.87L5 8.43C5 8.95 5.41 9.37 5.93 9.37C6.45 9.37 6.87 8.95 6.87 8.43L6.87 6.87L13.12 6.87L13.12 8.43C13.12 8.95 13.54 9.37 14.06 9.37C14.58 9.37 15 8.95 15 8.43L15 6.87L16.87 6.87L16.87 16.87C16.87 17.56 16.31 18.12 15.62 18.12Z" stroke="#484848" stroke-opacity="1.000000" stroke-width="0.039062"/>
	</g>
</svg>
