<svg width="18.000000" height="18.000977" viewBox="0 0 18 18.001" fill="none" xmlns="http://www.w3.org/2000/svg" xmlns:xlink="http://www.w3.org/1999/xlink">
	<desc>
			Created with Pixso.
	</desc>
	<defs>
		<clipPath id="clip6_192">
			<rect id="Button âµ SVG" rx="-0.500000" width="17.000000" height="17.000879" transform="translate(0.500000 0.500000)" fill="white" fill-opacity="0"/>
		</clipPath>
	</defs>
	<g clip-path="url(#clip6_192)">
		<path id="Vector" d="M17.87 16.48L13.6 12.21C13.52 12.13 13.42 12.09 13.31 12.09L12.84 12.09C13.95 10.81 14.62 9.14 14.62 7.31C14.62 3.27 11.35 0 7.31 0C3.27 0 0 3.27 0 7.31C0 11.35 3.27 14.62 7.31 14.62C9.14 14.62 10.81 13.95 12.09 12.84L12.09 13.31C12.09 13.42 12.13 13.52 12.21 13.6L16.48 17.87C16.64 18.04 16.91 18.04 17.08 17.87L17.87 17.08C18.04 16.91 18.04 16.64 17.87 16.48ZM7.31 12.93C4.2 12.93 1.68 10.42 1.68 7.31C1.68 4.2 4.2 1.68 7.31 1.68C10.42 1.68 12.93 4.2 12.93 7.31C12.93 10.42 10.42 12.93 7.31 12.93Z" fill="#484848" fill-opacity="1.000000" fill-rule="nonzero"/>
		<path id="Vector" d="M13.6 12.21C13.52 12.13 13.42 12.09 13.31 12.09L12.84 12.09C13.95 10.81 14.62 9.14 14.62 7.31C14.62 3.27 11.35 0 7.31 0C3.27 0 0 3.27 0 7.31C0 11.35 3.27 14.62 7.31 14.62C9.14 14.62 10.81 13.95 12.09 12.84L12.09 13.31C12.09 13.42 12.13 13.52 12.21 13.6L16.48 17.87C16.64 18.04 16.91 18.04 17.08 17.87L17.87 17.08C18.04 16.91 18.04 16.64 17.87 16.48L13.6 12.21ZM1.68 7.31C1.68 4.2 4.2 1.68 7.31 1.68C10.42 1.68 12.93 4.2 12.93 7.31C12.93 10.42 10.42 12.93 7.31 12.93C4.2 12.93 1.68 10.42 1.68 7.31Z" stroke="#484848" stroke-opacity="1.000000" stroke-width="0.035156"/>
	</g>
</svg>
