<svg width="20.000000" height="20.000000" viewBox="0 0 20 20" fill="none" xmlns="http://www.w3.org/2000/svg" xmlns:xlink="http://www.w3.org/1999/xlink">
	<desc>
			Created with Pixso.
	</desc>
	<defs>
		<clipPath id="clip6_195">
			<rect id="SVG" rx="-0.500000" width="19.000000" height="19.000000" transform="translate(0.500000 0.500000)" fill="white" fill-opacity="0"/>
		</clipPath>
	</defs>
	<g clip-path="url(#clip6_195)">
		<path id="Vector" d="M13.5 11.87C12.37 11.87 11.83 12.5 10 12.5C8.16 12.5 7.62 11.87 6.5 11.87C3.6 11.87 1.25 14.22 1.25 17.12L1.25 18.12C1.25 19.16 2.08 20 3.12 20L16.87 20C17.91 20 18.75 19.16 18.75 18.12L18.75 17.12C18.75 14.22 16.39 11.87 13.5 11.87ZM16.87 18.12L3.12 18.12L3.12 17.12C3.12 15.26 4.64 13.75 6.5 13.75C7.07 13.75 7.99 14.37 10 14.37C12.01 14.37 12.92 13.75 13.5 13.75C15.35 13.75 16.87 15.26 16.87 17.12L16.87 18.12ZM10 11.25C13.1 11.25 15.62 8.73 15.62 5.62C15.62 2.51 13.1 0 10 0C6.89 0 4.37 2.51 4.37 5.62C4.37 8.73 6.89 11.25 10 11.25ZM10 1.87C12.06 1.87 13.75 3.55 13.75 5.62C13.75 7.69 12.06 9.37 10 9.37C7.93 9.37 6.25 7.69 6.25 5.62C6.25 3.55 7.93 1.87 10 1.87Z" fill="#484848" fill-opacity="1.000000" fill-rule="nonzero"/>
		<path id="Vector" d="M10 12.5C8.16 12.5 7.62 11.87 6.5 11.87C3.6 11.87 1.25 14.22 1.25 17.12L1.25 18.12C1.25 19.16 2.08 20 3.12 20L16.87 20C17.91 20 18.75 19.16 18.75 18.12L18.75 17.12C18.75 14.22 16.39 11.87 13.5 11.87C12.37 11.87 11.83 12.5 10 12.5ZM3.12 18.12L3.12 17.12C3.12 15.26 4.64 13.75 6.5 13.75C7.07 13.75 7.99 14.37 10 14.37C12.01 14.37 12.92 13.75 13.5 13.75C15.35 13.75 16.87 15.26 16.87 17.12L16.87 18.12L3.12 18.12ZM15.62 5.62C15.62 2.51 13.1 0 10 0C6.89 0 4.37 2.51 4.37 5.62C4.37 8.73 6.89 11.25 10 11.25C13.1 11.25 15.62 8.73 15.62 5.62ZM13.75 5.62C13.75 7.69 12.06 9.37 10 9.37C7.93 9.37 6.25 7.69 6.25 5.62C6.25 3.55 7.93 1.87 10 1.87C12.06 1.87 13.75 3.55 13.75 5.62Z" stroke="#484848" stroke-opacity="1.000000" stroke-width="0.039062"/>
	</g>
</svg>
